<?xml version="1.0" encoding="UTF-8" standalone="no"?>
<svg
   xmlns:dc="http://purl.org/dc/elements/1.1/"
   xmlns:cc="http://creativecommons.org/ns#"
   xmlns:rdf="http://www.w3.org/1999/02/22-rdf-syntax-ns#"
   xmlns:svg="http://www.w3.org/2000/svg"
   xmlns="http://www.w3.org/2000/svg"
   version="1.1"
   id="svg2"
   viewBox="0 0 156.37289 29.585479"
   height="0.32872754in"
   width="1.7374766in">
  <defs
     id="defs4" />
  <metadata
     id="metadata7">
    <rdf:RDF>
      <cc:Work
         rdf:about="">
        <dc:format>image/svg+xml</dc:format>
        <dc:type
           rdf:resource="http://purl.org/dc/dcmitype/StillImage" />
        <dc:title></dc:title>
      </cc:Work>
    </rdf:RDF>
  </metadata>
  <g
     transform="translate(-220.78763,-383.91509)"
     id="layer1">
    <g
       id="text4136"
       style="font-style:normal;font-variant:normal;font-weight:normal;font-stretch:normal;font-size:20px;line-height:125%;font-family:'Courier 10 Pitch';-inkscape-font-specification:'Courier 10 Pitch, Normal';text-align:start;letter-spacing:5.00999975px;word-spacing:0px;writing-mode:lr-tb;text-anchor:start;fill:#000000;fill-opacity:1;stroke:none;stroke-width:1px;stroke-linecap:butt;stroke-linejoin:miter;stroke-opacity:1"
       aria-label="TheTelephone~">
      <path
         id="path47"
         style="letter-spacing:-0.80000001px"
         d="m 228.87419,396.51796 0.08,-2.54 h 2.8 v 8.8 h -1.48 c -0.18,0 -0.28,0 -0.32,0 -0.6,0 -0.84,0.16 -0.84,0.68 0,0.46 0.24,0.7 0.68,0.7 h 5.48 c 0.44,0 0.68,-0.24 0.68,-0.7 0,-0.48 -0.24,-0.68 -0.78,-0.68 -0.06,0 -0.18,0 -0.38,0 h -1.5 v -8.8 h 2.8 l 0.1,2.54 c 0.02,0.84 0.08,1.14 0.76,1.14 0.44,0 0.68,-0.24 0.68,-0.7 0,-0.04 -0.02,-0.18 -0.02,-0.48 l -0.1,-3.22 c -0.02,-0.48 -0.24,-0.68 -0.74,-0.68 h -8.48 c -0.5,0 -0.72,0.2 -0.74,0.68 l -0.1,3.22 c -0.02,0.3 -0.02,0.46 -0.02,0.46 0,0.48 0.24,0.72 0.68,0.72 0.68,0 0.74,-0.3 0.76,-1.14 z" />
      <path
         id="path49"
         style="letter-spacing:-0.80000001px"
         d="m 240.08544,402.77796 c -0.08,0 -0.14,0 -0.2,0 -0.8,0 -1.14,0.12 -1.14,0.68 0,0.46 0.26,0.7 0.78,0.7 h 2.6 c 0.58,0 0.78,-0.14 0.78,-0.7 0,-0.54 -0.26,-0.7 -0.94,-0.7 -0.12,0 -0.26,0.02 -0.42,0.02 v -4.06 c 0,-1.46 1.36,-2.34 2.54,-2.34 1.28,0 2.06,0.78 2.06,2.34 v 4.06 c -0.18,0 -0.28,0 -0.38,0 -0.7,0 -0.96,0.14 -0.96,0.68 0,0.56 0.2,0.7 0.78,0.7 h 2.6 c 0.52,0 0.78,-0.24 0.78,-0.7 0,-0.5 -0.3,-0.68 -0.92,-0.68 -0.14,0 -0.28,0 -0.42,0 v -4.42 c 0,-2.26 -1.34,-3.48 -3.2,-3.48 -1.02,0 -1.92,0.44 -2.86,1.32 v -4.42 c 0,-0.24 -0.18,-0.4 -0.56,-0.4 h -1.48 c -0.52,0 -0.78,0.24 -0.78,0.7 0,0.5 0.28,0.68 0.9,0.68 0.14,0 0.3,0.02 0.44,0.02 z" />
      <path
         id="path51"
         style="letter-spacing:-0.80000001px"
         d="m 251.73669,398.79796 c 0.38,-1.62 1.64,-2.58 3.36,-2.58 1.58,0 2.82,1.02 3,2.58 z m -0.04,1.28 h 6.56 c 1.2,0 1.62,0 1.62,-0.92 0,-2.18 -1.82,-4.28 -4.78,-4.28 -3.02,0 -5.1,1.94 -5.1,4.74 0,2.92 1.88,4.78 4.9,4.78 1.32,0 2.74,-0.32 4.08,-0.98 0.58,-0.28 0.86,-0.58 0.86,-0.98 0,-0.36 -0.3,-0.64 -0.68,-0.64 -0.88,0 -2.14,1.22 -4.12,1.22 -2.02,0 -3.24,-1.06 -3.34,-2.94 z" />
      <path
         id="path53"
         style="letter-spacing:-0.80000001px"
         d="m 262.56794,396.51796 0.08,-2.54 h 2.8 v 8.8 h -1.48 c -0.18,0 -0.28,0 -0.32,0 -0.6,0 -0.84,0.16 -0.84,0.68 0,0.46 0.24,0.7 0.68,0.7 h 5.48 c 0.44,0 0.68,-0.24 0.68,-0.7 0,-0.48 -0.24,-0.68 -0.78,-0.68 -0.06,0 -0.18,0 -0.38,0 h -1.5 v -8.8 h 2.8 l 0.1,2.54 c 0.02,0.84 0.08,1.14 0.76,1.14 0.44,0 0.68,-0.24 0.68,-0.7 0,-0.04 -0.02,-0.18 -0.02,-0.48 l -0.1,-3.22 c -0.02,-0.48 -0.24,-0.68 -0.74,-0.68 h -8.48 c -0.5,0 -0.72,0.2 -0.74,0.68 l -0.1,3.22 c -0.02,0.3 -0.02,0.46 -0.02,0.46 0,0.48 0.24,0.72 0.68,0.72 0.68,0 0.74,-0.3 0.76,-1.14 z" />
      <path
         id="path55"
         style="letter-spacing:-0.80000001px"
         d="m 274.19919,398.79796 c 0.38,-1.62 1.64,-2.58 3.36,-2.58 1.58,0 2.82,1.02 3,2.58 z m -0.04,1.28 h 6.56 c 1.2,0 1.62,0 1.62,-0.92 0,-2.18 -1.82,-4.28 -4.78,-4.28 -3.02,0 -5.1,1.94 -5.1,4.74 0,2.92 1.88,4.78 4.9,4.78 1.32,0 2.74,-0.32 4.08,-0.98 0.58,-0.28 0.86,-0.58 0.86,-0.98 0,-0.36 -0.3,-0.64 -0.68,-0.64 -0.88,0 -2.14,1.22 -4.12,1.22 -2.02,0 -3.24,-1.06 -3.34,-2.94 z" />
      <path
         id="path57"
         style="letter-spacing:-0.80000001px"
         d="m 288.03044,392.77796 v 10 h -2.7 c -0.54,0 -0.82,0.22 -0.82,0.68 0,0.46 0.26,0.7 0.78,0.7 h 7.2 c 0.58,0 0.8,-0.14 0.8,-0.7 0,-0.48 -0.24,-0.68 -0.74,-0.68 h -3.04 v -11 c 0,-0.24 -0.18,-0.4 -0.56,-0.4 h -3.22 c -0.52,0 -0.78,0.24 -0.78,0.7 0,0.5 0.28,0.68 0.92,0.68 0.1,0 0.28,0.02 0.5,0.02 z" />
      <path
         id="path59"
         style="letter-spacing:-0.80000001px"
         d="m 296.66169,398.79796 c 0.38,-1.62 1.64,-2.58 3.36,-2.58 1.58,0 2.82,1.02 3,2.58 z m -0.04,1.28 h 6.56 c 1.2,0 1.62,0 1.62,-0.92 0,-2.18 -1.82,-4.28 -4.78,-4.28 -3.02,0 -5.1,1.94 -5.1,4.74 0,2.92 1.88,4.78 4.9,4.78 1.32,0 2.74,-0.32 4.08,-0.98 0.58,-0.28 0.86,-0.58 0.86,-0.98 0,-0.36 -0.3,-0.64 -0.68,-0.64 -0.88,0 -2.14,1.22 -4.12,1.22 -2.02,0 -3.24,-1.06 -3.34,-2.94 z" />
      <path
         id="path61"
         style="letter-spacing:-0.80000001px"
         d="m 311.65294,402.73796 c -1.82,0 -3.08,-1.3 -3.08,-3.06 0,-1.76 1.26,-3.06 3.08,-3.06 1.84,0 3.1,1.3 3.1,3.06 0,1.82 -1.3,3.06 -3.1,3.06 z m -3.04,3.92 v -3.9 c 0.8,0.92 2,1.42 3.38,1.42 2.56,0 4.44,-1.8 4.44,-4.4 0,-2.74 -2.04,-4.66 -4.6,-4.66 -1.24,0 -2.32,0.46 -3.2,1.36 v -0.94 c 0,-0.28 -0.18,-0.4 -0.56,-0.4 h -1.5 c -0.52,0 -0.78,0.22 -0.78,0.68 0,0.5 0.3,0.7 0.92,0.7 0.14,0 0.3,0 0.44,0 v 10.14 c -0.06,0 -0.12,0 -0.18,0 -0.82,0 -1.18,0.14 -1.18,0.7 0,0.46 0.26,0.7 0.78,0.7 h 4.32 c 0.58,0 0.82,-0.16 0.82,-0.7 0,-0.46 -0.24,-0.7 -0.74,-0.7 z" />
      <path
         id="path63"
         style="letter-spacing:-0.80000001px"
         d="m 318.70419,402.77796 c -0.08,0 -0.14,0 -0.2,0 -0.8,0 -1.14,0.12 -1.14,0.68 0,0.46 0.26,0.7 0.78,0.7 h 2.6 c 0.58,0 0.78,-0.14 0.78,-0.7 0,-0.54 -0.26,-0.7 -0.94,-0.7 -0.12,0 -0.26,0.02 -0.42,0.02 v -4.06 c 0,-1.46 1.36,-2.34 2.54,-2.34 1.28,0 2.06,0.78 2.06,2.34 v 4.06 c -0.18,0 -0.28,0 -0.38,0 -0.7,0 -0.96,0.14 -0.96,0.68 0,0.56 0.2,0.7 0.78,0.7 h 2.6 c 0.52,0 0.78,-0.24 0.78,-0.7 0,-0.5 -0.3,-0.68 -0.92,-0.68 -0.14,0 -0.28,0 -0.42,0 v -4.42 c 0,-2.26 -1.34,-3.48 -3.2,-3.48 -1.02,0 -1.92,0.44 -2.86,1.32 v -4.42 c 0,-0.24 -0.18,-0.4 -0.56,-0.4 h -1.48 c -0.52,0 -0.78,0.24 -0.78,0.7 0,0.5 0.28,0.68 0.9,0.68 0.14,0 0.3,0.02 0.44,0.02 z" />
      <path
         id="path65"
         style="letter-spacing:-0.80000001px"
         d="m 338.71544,399.65796 c 0,-2.7 -2,-4.74 -5.1,-4.74 -3.1,0 -5.12,2.02 -5.12,4.74 0,2.72 2.02,4.74 5.12,4.74 3.1,0 5.1,-2.02 5.1,-4.74 z m -5.1,3.38 c -2.02,0 -3.42,-1.44 -3.42,-3.38 0,-1.94 1.4,-3.4 3.42,-3.4 2.02,0 3.42,1.46 3.42,3.4 0,1.96 -1.4,3.38 -3.42,3.38 z" />
      <path
         id="path67"
         style="letter-spacing:-0.80000001px"
         d="m 341.20669,402.77796 c -0.08,0 -0.14,0 -0.2,0 -0.8,0 -1.14,0.12 -1.14,0.68 0,0.46 0.26,0.7 0.82,0.7 0.26,0 0.44,0 0.52,0 h 1.78 c 0.74,0 1.04,-0.04 1.04,-0.7 0,-0.54 -0.26,-0.7 -0.94,-0.7 -0.12,0 -0.26,0.02 -0.42,0.02 v -4.06 c 0,-1.46 1.36,-2.34 2.54,-2.34 1.28,0 2,0.78 2,2.34 v 4.06 c -0.12,0 -0.22,0 -0.32,0 -0.7,0 -0.98,0.14 -0.98,0.68 0,0.64 0.28,0.7 0.98,0.7 h 2.16 c 0.7,0 1.04,-0.14 1.04,-0.7 0,-0.5 -0.3,-0.68 -0.92,-0.68 -0.14,0 -0.3,0 -0.44,0 v -4.42 c 0,-2.26 -1.32,-3.48 -3.18,-3.48 -1.02,0 -1.92,0.44 -2.86,1.32 v -0.66 c 0,-0.24 -0.18,-0.4 -0.56,-0.4 h -0.92 c -0.9,0 -1.34,0 -1.34,0.68 0,0.5 0.28,0.7 0.9,0.7 0.14,0 0.3,0 0.44,0 z" />
      <path
         id="path69"
         style="letter-spacing:-0.80000001px"
         d="m 352.81794,398.79796 c 0.38,-1.62 1.64,-2.58 3.36,-2.58 1.58,0 2.82,1.02 3,2.58 z m -0.04,1.28 h 6.56 c 1.2,0 1.62,0 1.62,-0.92 0,-2.18 -1.82,-4.28 -4.78,-4.28 -3.02,0 -5.1,1.94 -5.1,4.74 0,2.92 1.88,4.78 4.9,4.78 1.32,0 2.74,-0.32 4.08,-0.98 0.58,-0.28 0.86,-0.58 0.86,-0.98 0,-0.36 -0.3,-0.64 -0.68,-0.64 -0.88,0 -2.14,1.22 -4.12,1.22 -2.02,0 -3.24,-1.06 -3.34,-2.94 z" />
      <path
         id="path71"
         style="letter-spacing:-0.80000001px"
         d="m 362.58919,398.43796 c 0,0.38 0.16,0.6 0.48,0.6 0.44,0 1.08,-0.72 2.2,-0.72 1.34,0 2.7,0.84 4.04,0.84 1.42,0 2.72,-0.92 2.72,-1.58 0,-0.38 -0.16,-0.6 -0.48,-0.6 -0.46,0 -1.08,0.72 -2.2,0.72 -1.32,0 -2.7,-0.84 -4.04,-0.84 -1.44,0 -2.72,0.92 -2.72,1.58 z" />
    </g>
    <g
       transform="matrix(0.92336186,0,0,1.0392838,24.078738,-15.137852)"
       id="g4209">
      <rect
         style="opacity:1;fill:none;fill-opacity:1;stroke:#000000;stroke-width:1.85535276;stroke-linejoin:round;stroke-miterlimit:4;stroke-dasharray:none;stroke-dashoffset:0;stroke-opacity:1"
         id="rect4140"
         width="167.49634"
         height="26.611826"
         x="213.96321"
         y="384.89685" />
      <rect
         style="opacity:1;fill:none;fill-opacity:1;stroke:#000000;stroke-width:1.10000002;stroke-linejoin:round;stroke-miterlimit:4;stroke-dasharray:none;stroke-dashoffset:0;stroke-opacity:1"
         id="rect4140-1"
         width="20.892036"
         height="2.993593"
         x="214.187"
         y="385.30661" />
      <rect
         style="opacity:1;fill:none;fill-opacity:1;stroke:#000000;stroke-width:1.10000002;stroke-linejoin:round;stroke-miterlimit:4;stroke-dasharray:none;stroke-dashoffset:0;stroke-opacity:1"
         id="rect4140-1-9"
         width="20.892036"
         height="2.993593"
         x="214.18689"
         y="408.12582" />
      <rect
         style="opacity:1;fill:none;fill-opacity:1;stroke:#000000;stroke-width:1.10000002;stroke-linejoin:round;stroke-miterlimit:4;stroke-dasharray:none;stroke-dashoffset:0;stroke-opacity:1"
         id="rect4140-1-3"
         width="20.892036"
         height="2.993593"
         x="360.28125"
         y="385.3071" />
      <rect
         style="opacity:1;fill:none;fill-opacity:1;stroke:#000000;stroke-width:1.10000002;stroke-linejoin:round;stroke-miterlimit:4;stroke-dasharray:none;stroke-dashoffset:0;stroke-opacity:1"
         id="rect4140-1-9-8"
         width="20.892036"
         height="2.993593"
         x="360.28146"
         y="408.12561" />
    </g>
  </g>
</svg>
